<?xml version="1.0" encoding="utf-8"?>
<!-- Generator: Adobe Illustrator 16.0.0, SVG Export Plug-In . SVG Version: 6.00 Build 0)  -->
<!DOCTYPE svg PUBLIC "-//W3C//DTD SVG 1.1//EN" "http://www.w3.org/Graphics/SVG/1.1/DTD/svg11.dtd">
<svg version="1.1" id="Layer_1" xmlns="http://www.w3.org/2000/svg" xmlns:xlink="http://www.w3.org/1999/xlink" x="0px" y="0px"
	 width="2048px" height="2048px" viewBox="0 0 2048 2048" enable-background="new 0 0 2048 2048" xml:space="preserve">
<g>
	<polygon fill="#93278F" points="163.906,1515.948 164.926,523.775 1024.683,28.571 1883.421,525.542 1882.4,1517.714 
		1022.643,2012.918 	"/>
	<path fill="#8CC63F" d="M1024.653,57.439l833.753,482.51l-0.991,963.306l-834.742,480.795l-833.752-482.509l0.99-963.307
		L1024.653,57.439 M1024.713-0.296L139.94,509.315l-1.049,1021.041l883.722,511.429l884.772-509.611l1.05-1021.041L1024.713-0.296
		L1024.713-0.296z"/>
</g>
<text transform="matrix(1 0 0 1 560.8398 1638.4014)" fill="#F2F2F2" font-family="'SegoeUI'" font-size="259.5296">sourcerr</text>
<g>
	<path fill="#F2F2F2" d="M1400.422,1137.68l-58.473-748.316l28.158-2.2l-2.539-32.488l-714.745,55.85
		c-56.726,4.433-99.272,54.192-94.84,110.918l63.804,816.541l0.311-0.024c0.011,2.52,0.082,5.053,0.282,7.604
		c4.432,56.726,54.191,99.272,110.918,94.84l93.134-7.277l2.356,30.155l82.468-60.086l90.802,46.547l-2.357-30.153l441.842-34.525
		l-2.538-32.487l-66.061,5.162l-11.001-140.785l66.061-5.162l-2.538-32.487l-708.247,55.341
		c-27.213,2.127-51.142,14.703-68.207,33.454l-58.542-749.195c-3.033-38.813,26.08-72.858,64.89-75.891l54.147-4.231l58.473,748.317
		l32.489-2.539l-58.473-748.316l567.464-44.341l58.474,748.316L1400.422,1137.68L1400.422,1137.68z M965.027,1394.14l-56.75-29.089
		l-51.543,37.551l-4.583-58.648l108.296-8.462l4.583,58.648H965.027z M806.394,1260.363l523.061-40.871l2.073,26.531
		l-245.827,19.209l2.538,32.488l245.828-19.209l1.776,22.741l-289.146,22.594l2.539,32.488l289.146-22.595l2.073,26.533
		l-343.293,26.824l-6.769-86.634l-173.272,13.539l6.77,86.634l-6.497,0.508c-38.814,3.032-72.859-26.079-75.892-64.89
		C738.471,1297.443,767.58,1263.396,806.394,1260.363z M719.759,1267.133l11.708-0.915c-15.875,19.771-24.578,45.366-22.452,72.576
		c2.126,27.212,14.701,51.141,33.452,68.205l-11.708,0.915c-38.813,3.033-72.858-26.078-75.891-64.89
		C651.836,1304.212,680.945,1270.166,719.759,1267.133z"/>
</g>
<g>
	<path fill="#F2F2F2" d="M1094.634,576.11c22.323,0,108.202,6.059,116.506,98.721c9.555,106.606-96.805,124.137-96.805,124.137
		s22.323,4.61,35.522,9.868c4.58,1.825,12.558,5.569,18.546,10.888c5.866,5.209,8.995,10.74,8.995,10.74l98.601,136.744
		L1137.56,979.68l-75.637-115.773c0,0-15.3-21.59-24.048-27.463c-6.367-4.274-9.522-6.114-14.689-6.114
		c-0.757,0-1.555,0.039-2.414,0.116c-4.684,0.42-32.895,2.948-32.895,2.948l14.217,158.337l-122.504,11.032l-36.25-404.467
		l246.014-22.049C1089.354,576.248,1091.274,576.11,1094.634,576.11 M980.867,743.688l74.2-6.674c0,0,34.354-3.187,31.228-38.064
		c-2.496-27.844-23.982-30.871-33.207-30.871c-2.562,0-4.178,0.233-4.178,0.233l-74.17,6.599L980.867,743.688 M1094.635,541.11
		L1094.635,541.11c-4.276,0-7.033,0.173-7.775,0.226c-0.211,0.015-0.421,0.032-0.63,0.051l-246.014,22.049
		c-19.252,1.726-33.461,18.732-31.736,37.985l36.25,404.466c0.829,9.249,5.299,17.788,12.425,23.739
		c6.319,5.277,14.268,8.137,22.434,8.137c1.044,0,2.092-0.047,3.14-0.141l122.504-11.033c19.248-1.733,33.448-18.739,31.72-37.988
		l-10.162-113.186c2.113,2.665,4.282,5.523,6.221,8.231l75.247,115.175c6.499,9.948,17.552,15.858,29.294,15.858
		c1.045,0,2.094-0.047,3.146-0.142l138.439-12.471c12.524-1.128,23.48-8.888,28.701-20.329c5.221-11.44,3.903-24.801-3.451-35.001
		l-97.812-135.65c-1.851-2.942-5.256-7.835-10.275-13.055c14.689-12.114,26.372-26.44,34.814-42.717
		c12.661-24.413,17.669-52.543,14.885-83.609c-2.473-27.585-10.816-51.651-24.802-71.529c-11.911-16.93-27.71-30.567-46.958-40.534
		C1143.096,543.518,1110.997,541.11,1094.635,541.11L1094.635,541.11z"/>
</g>
<g>
	<g>
		<g>
			<path fill="#F2F2F2" d="M422.582,1005.793l37.237,8.259c4.515,25.214,10.121,44.948,21.213,62.362
				c11.091,17.412,26.605,30.836,47.545,45.586l-8.258,37.238c-25.212,4.517-44.947,10.123-62.36,21.215
				c-17.413,11.091-30.837,26.604-45.589,47.544l-37.238-8.259c-4.515-25.212-10.121-44.945-21.213-62.359
				c-11.091-17.412-26.605-30.837-47.545-45.59l8.259-37.238c25.213-4.516,44.948-10.123,62.36-21.214
				C394.409,1042.245,407.832,1026.732,422.582,1005.793 M408.084,1174.241c3.795,0,7.498-1.442,10.313-4.107
				c14.029-13.282,28.943-22.782,46.936-29.896c4.632-1.831,8.052-5.841,9.13-10.703s-0.328-9.942-3.752-13.56
				c-13.287-14.033-22.786-28.946-29.894-46.934c-1.831-4.632-5.841-8.054-10.703-9.132c-1.078-0.239-2.166-0.355-3.247-0.355
				c-3.795,0-7.498,1.442-10.313,4.107c-14.044,13.298-28.957,22.796-46.93,29.893c-4.634,1.83-8.057,5.841-9.135,10.704
				s0.327,9.945,3.753,13.562c13.292,14.036,22.791,28.948,29.892,46.93c1.83,4.633,5.84,8.056,10.703,9.134
				C405.914,1174.124,407.003,1174.241,408.084,1174.241 M415.977,988.964c-34.712,51.124-52.795,62.639-113.802,72.486
				l-12.629,56.944c51.124,34.717,62.642,52.796,72.486,113.803l56.944,12.629c34.717-51.124,52.796-62.639,113.803-72.487
				l12.629-56.944c-51.124-34.712-62.643-52.791-72.487-113.802L415.977,988.964L415.977,988.964z M408.084,1159.241
				c-7.84-19.852-18.275-36.236-32.952-51.734c19.853-7.839,36.232-18.275,51.734-32.952c7.844,19.851,18.28,36.238,32.952,51.734
				C439.973,1134.135,423.581,1144.569,408.084,1159.241L408.084,1159.241z"/>
		</g>
	</g>
</g>
<g>
	<g>
		<path fill="none" stroke="#F2F2F2" stroke-width="15" stroke-linecap="round" stroke-linejoin="round" stroke-miterlimit="10" d="
			M1638.725,602.502l-57.539,9.562c-13.096,60.393-25.565,77.829-78.474,109.759l9.562,57.539
			c60.394,13.101,77.834,25.565,109.759,78.476l57.539-9.562c13.101-60.393,25.567-77.83,78.476-109.76l-9.562-57.539
			C1688.092,667.881,1670.652,655.416,1638.725,602.502z M1637.49,772.958c-14.689-15.484-30.491-26.782-49.896-35.675
			c15.486-14.688,26.779-30.49,35.675-49.896c14.692,15.481,30.496,26.782,49.896,35.675
			C1657.688,737.755,1646.382,753.559,1637.49,772.958z"/>
	</g>
</g>
<g>
	<g>
		<g>
			<path fill="#F2F2F2" d="M396.685,537.98c22.066,38.02,39.369,51.495,81.64,63.58l3.411,27.433
				c-38.028,22.074-51.498,39.373-63.583,81.64l-27.431,3.411c-22.07-38.018-39.374-51.495-81.639-63.583l-3.411-27.43
				c38.019-22.07,51.495-39.374,63.583-81.639L396.685,537.98 M398.08,676.249c0.615,0,1.234-0.038,1.853-0.115
				c4.943-0.615,9.258-3.643,11.518-8.083c7.013-13.781,15.707-24.944,27.361-35.131c3.75-3.278,5.628-8.203,5.013-13.146
				c-0.615-4.942-3.644-9.257-8.083-11.516c-13.788-7.016-24.95-15.709-35.127-27.358c-2.867-3.282-6.996-5.131-11.294-5.131
				c-0.615,0-1.233,0.038-1.852,0.115c-4.943,0.614-9.259,3.643-11.518,8.082c-7.016,13.788-15.709,24.95-27.358,35.128
				c-3.751,3.277-5.63,8.203-5.016,13.146c0.614,4.943,3.642,9.258,8.081,11.518c13.788,7.018,24.95,15.711,35.129,27.36
				C389.653,674.4,393.782,676.249,398.08,676.249 M404.815,521.854l-47.391,5.893c-12.743,48.965-23.525,62.81-67.879,87.155
				l5.893,47.39c48.964,12.743,62.809,23.525,87.155,67.879l47.391-5.893c12.739-48.965,23.525-62.81,67.878-87.155l-5.892-47.394
				C443.001,576.991,429.153,566.205,404.815,521.854L404.815,521.854z M398.082,661.249c-11.497-13.157-24.048-22.933-39.62-30.858
				c13.157-11.496,22.933-24.047,30.857-39.621c11.497,13.159,24.048,22.934,39.62,30.857
				C415.782,633.127,406.006,645.675,398.082,661.249L398.082,661.249z"/>
		</g>
	</g>
</g>
<g>
	<g>
		<g>
			<path fill="#F2F2F2" d="M1659.385,1113.928l26.933,6.213c7.674,43.285,19.3,61.882,54.853,87.743l-6.214,26.937
				c-43.294,7.678-61.884,19.301-87.745,54.851l-26.935-6.212c-7.677-43.285-19.303-61.884-54.851-87.746l6.213-26.935
				C1614.924,1161.102,1633.522,1149.477,1659.385,1113.928 M1645.312,1251.397c3.751,0,7.414-1.409,10.22-4.021
				c11.319-10.536,23.318-18.037,37.761-23.604c4.646-1.792,8.102-5.773,9.221-10.627c1.118-4.853-0.245-9.945-3.639-13.591
				c-10.54-11.32-18.039-23.316-23.6-37.752c-1.79-4.648-5.771-8.104-10.625-9.225c-1.118-0.258-2.249-0.384-3.372-0.384
				c-3.751,0-7.414,1.408-10.22,4.021c-11.325,10.541-23.322,18.041-37.757,23.602c-4.647,1.79-8.104,5.771-9.224,10.625
				c-1.119,4.854,0.243,9.946,3.637,13.592c10.54,11.324,18.039,23.321,23.601,37.757c1.79,4.647,5.771,8.104,10.625,9.224
				C1643.059,1251.271,1644.189,1251.397,1645.312,1251.397 M1652.957,1097.052c-28.777,41.615-43.658,50.917-93.674,58.556
				l-10.734,46.533c41.615,28.777,50.917,43.657,58.557,93.674l46.533,10.733c28.774-41.615,43.657-50.917,93.673-58.557
				l10.735-46.536c-41.618-28.773-50.923-43.658-58.558-93.67L1652.957,1097.052L1652.957,1097.052z M1645.312,1236.397
				c-6.281-16.305-14.714-29.795-26.618-42.584c16.305-6.281,29.794-14.714,42.584-26.619c6.28,16.305,14.713,29.795,26.618,42.582
				C1671.592,1216.062,1658.103,1224.492,1645.312,1236.397L1645.312,1236.397z"/>
		</g>
	</g>
</g>
<text transform="matrix(0.8668 -0.4986 0.4986 0.8668 1053.6689 1950.8887)" fill="#FFFFFF" font-family="'SegoeUI'" font-size="51.5896">github.com/colbyford/sourcerr</text>
</svg>
